<svg xmlns="http://www.w3.org/2000/svg" viewBox="0 0 512 512"><defs><linearGradient id="a" x1="256" y1="496" x2="256" y2="16" gradientUnits="userSpaceOnUse"><stop offset="0" stop-color="#12c2e9"/><stop offset=".5" stop-color="#c471ed"/><stop offset="1" stop-color="#f64f59"/></linearGradient></defs><path d="M157.657 50.343l22.628 22.627a8 8 0 01-11.314 11.314l-22.627-22.627a8 8 0 1111.313-11.314zm227.314 40l-22.627 22.627a8 8 0 1011.313 11.314l22.628-22.627a8 8 0 10-11.314-11.314zM80 240a8 8 0 000-16H48a8 8 0 000 16zm416 152v96a8 8 0 01-8 8h-88a8 8 0 01-5.656-2.343L368 467.313l-26.343 26.344A8 8 0 01336 496h-88a8 8 0 01-8-8v-8h-96a8 8 0 01-7.982-7.468l-15.482-232.27a7.078 7.078 0 01-.028-.324l-.49-7.41h.009c-.011-.176-.027-.35-.027-.528v-8a64.093 64.093 0 0140.256-59.451A40.029 40.029 0 01200 120a39.853 39.853 0 0127.019 10.487A63.99 63.99 0 01336 176c0 2.093-.1 4.179-.3 6.246A47.771 47.771 0 01360 224v8c0 .178-.015.353-.026.528h.008l-.35 5.29c-.007.1-.015.193-.025.288L349.881 384H488a8 8 0 018 8zm-162.154-8l9.6-144h-55.708l-4.8 144zM136 224h208a31.871 31.871 0 00-20.05-29.69 8 8 0 01-4.856-8.981 48.008 48.008 0 00-85.712-37.841 8 8 0 01-13.16-.429A24.006 24.006 0 00176 160a23.661 23.661 0 001.162 7.387 8 8 0 01-5.543 10.223A48.043 48.043 0 00136 224zm15.484 240h48.245l-7.466-224h-55.709zM248 384h18.932l4.8-144h-63.46l7.466 224H240v-72a8 8 0 018-8zm232 16H256v80h76.687l29.657-29.657a8 8 0 0111.313 0L403.314 480H480zm-208 56v-32a8 8 0 018-8h72a8 8 0 015.657 13.657l-32 32A8 8 0 01320 464h-40a8 8 0 01-8-8zm16-8h28.687l16-16H288zm90.344-18.343A8 8 0 01384 416h72a8 8 0 018 8v32a8 8 0 01-8 8h-40a8 8 0 01-5.656-2.343zm24.97 2.343l16 16H448v-16zM273.157 47.33a24 24 0 0145.486-15.291Q319.32 32 320 32a24 24 0 010 48 23.549 23.549 0 01-2.6-.144 28 28 0 11-44.243-32.526zM280 68a11.995 11.995 0 0023.941 1.08 8 8 0 0112.024-6.188A7.871 7.871 0 00320 64a8 8 0 000-16 7.862 7.862 0 00-4.079 1.136 8 8 0 01-12.02-8A8.3 8.3 0 00304 40a8 8 0 00-16 0 7.914 7.914 0 001.736 4.958 8 8 0 01-2.845 12.2A12.057 12.057 0 00280 68zm120 132a24.028 24.028 0 0124-24q.679 0 1.357.039a24 24 0 0145.486 15.291 28 28 0 11-44.243 32.526 23.549 23.549 0 01-2.6.144 24.028 24.028 0 01-24-24zm16 0a8.009 8.009 0 008 8 7.871 7.871 0 004.035-1.108 8 8 0 0112.024 6.188 11.994 11.994 0 1017.05-11.918 8 8 0 01-2.845-12.2A7.914 7.914 0 00456 184a8 8 0 00-16 0 8.3 8.3 0 00.1 1.141 8 8 0 01-12.02 8A7.862 7.862 0 00424 192a8.009 8.009 0 00-8 8zM41.157 415.33a24 24 0 0145.486-15.291Q87.319 400 88 400a24 24 0 010 48 23.549 23.549 0 01-2.6-.144 28 28 0 11-44.243-32.526zM48 436a11.995 11.995 0 0023.941 1.08 8 8 0 0112.024-6.188A7.871 7.871 0 0088 432a8 8 0 000-16 7.862 7.862 0 00-4.079 1.136 8 8 0 01-12.02-8A8.3 8.3 0 0072 408a8 8 0 00-16 0 7.914 7.914 0 001.736 4.958 8 8 0 01-2.845 12.2A12.057 12.057 0 0048 436zM16 120a24.028 24.028 0 0124-24q.68 0 1.357.039a24 24 0 0145.486 15.291A28 28 0 1142.6 143.856 23.549 23.549 0 0140 144a24.028 24.028 0 01-24-24zm16 0a8.009 8.009 0 008 8 7.871 7.871 0 004.035-1.108 8 8 0 0112.024 6.188 11.994 11.994 0 1017.05-11.918 8 8 0 01-2.845-12.2A7.914 7.914 0 0072 104a8 8 0 00-16 0 8.3 8.3 0 00.1 1.141 8 8 0 01-12.02 7.995A7.862 7.862 0 0040 112a8.009 8.009 0 00-8 8z" fill="url(#a)"/></svg>