<svg height="512" viewBox="0 0 64 64" width="512" xmlns="http://www.w3.org/2000/svg"><path d="M10 28c0 12.15 9.85 22 22 22s22-9.85 22-22S44.15 6 32 6s-22 9.85-22 22zm10.871 14.129L46.13 16.87A17.914 17.914 0 0150 28c0 9.941-8.059 18-18 18a17.904 17.904 0 01-11.129-3.871zM14 28c0-9.941 8.059-18 18-18 4.206 0 8.065 1.454 11.129 3.871L17.871 39.129A17.904 17.904 0 0114 28z" fill="#f4b2b0"/><g fill="#b3404a"><path d="M44.127 13.812a1 1 0 00-.379-.727C40.36 10.413 36.298 9 32 9c-10.477 0-19 8.523-19 19 0 4.298 1.413 8.36 4.086 11.748a.998.998 0 00.727.379l.059.002c.265 0 .52-.104.707-.293l25.258-25.258c.201-.202.307-.48.29-.766zM27 22h6.586l-2 2H27a1 1 0 00-1 1v1.586L22.414 23 26 19.414V21a1 1 0 001 1zm1 4h1.586L28 27.586zm7.586-6H28v-3a.999.999 0 00-1.707-.707l-6 6a.999.999 0 000 1.414l5.793 5.793-8.101 8.101A16.779 16.779 0 0115 28c0-9.374 7.626-17 17-17 3.467 0 6.763 1.028 9.601 2.985zM46.914 16.252a.998.998 0 00-1.493-.088L20.164 41.422a.998.998 0 00.088 1.493C23.64 45.587 27.702 47 32 47c10.477 0 19-8.523 19-19 0-4.298-1.413-8.36-4.086-11.748zM37 27.414l2-2V38h-2zM32 45a16.779 16.779 0 01-9.601-2.985L35 29.414V39a1 1 0 001 1h4a1 1 0 001-1V23.414l5.015-5.015A16.779 16.779 0 0149 28c0 9.374-7.626 17-17 17z"/><path d="M55 28c0-11.231-8.092-20.6-18.751-22.6V2a1 1 0 00-1-1h-6a1 1 0 00-1 1v3.311C17.345 7.107 9 16.595 9 28c0 11.318 8.219 20.745 19 22.645V63h2V50.908c.66.057 1.326.092 2 .092s1.34-.035 2-.092V63h2V50.645C46.781 48.745 55 39.318 55 28zM30.249 3h4v2.111C33.509 5.039 32.759 5 32 5c-.59 0-1.172.03-1.751.073zM32 49c-11.579 0-21-9.421-21-21S20.421 7 32 7s21 9.421 21 21-9.421 21-21 21z"/></g></svg>